<?xml version="1.0" encoding="UTF-8"?>
<svg id="Layer_2" data-name="Layer 2" xmlns="http://www.w3.org/2000/svg" viewBox="0 0 200 200">
  <defs>
    <style>
      .cls-1 {
        fill: #d88500;
      }

      .cls-1, .cls-2, .cls-3, .cls-4 {
        stroke-width: 0px;
      }

      .cls-2 {
        fill: #a0998a;
      }

      .cls-3 {
        fill: #3f2501;
      }

      .cls-4 {
        fill: #f9edcf;
      }
    </style>
  </defs>
  <g id="Layer_1-2" data-name="Layer 1">
    <g>
      <circle class="cls-3" cx="100" cy="100" r="100"/>
      <circle class="cls-2" cx="100" cy="100" r="95.61"/>
      <ellipse class="cls-4" cx="100" cy="96.5" rx="95.61" ry="92.1"/>
      <path class="cls-1" d="M114.96,85.03c5.75-1.82,9.91-7.2,9.91-13.55,0-7.85-6.37-14.22-14.22-14.22-3.43,0-6.57,1.21-9.03,3.23,4.78,2.87,8.25,7.82,8.89,13.35,1.05,9.08-6,15.41-6.69,16.01,2.66.94,8.66,3.48,13.62,9.61,5.78,7.15,6.6,14.8,6.76,17.54v14.43c7.53-1.02,12.56-2.87,12.56-4.98v-19.56c-.19-11.02-9.55-20.11-21.8-21.87Z"/>
      <path class="cls-1" d="M96.52,91.03c6.29-2,10.85-7.88,10.85-14.83,0-8.59-6.97-15.56-15.56-15.56s-15.56,6.97-15.56,15.56c0,6.95,4.56,12.83,10.85,14.83-13.4,1.92-23.64,11.87-23.85,23.93v21.41c0,3.52,12.79,6.37,28.57,6.37s28.57-2.85,28.57-6.37v-21.41c-.21-12.06-10.46-22.01-23.85-23.93Z"/>
    </g>
  </g>
</svg>