<?xml version="1.0" encoding="UTF-8"?>
<svg id="Layer_2" data-name="Layer 2" xmlns="http://www.w3.org/2000/svg" viewBox="0 0 200 200">
  <defs>
    <style>
      .cls-1 {
        fill: #023805;
      }

      .cls-1, .cls-2, .cls-3 {
        stroke-width: 0px;
      }

      .cls-2 {
        fill: #a0998a;
      }

      .cls-3 {
        fill: #f9edcf;
      }
    </style>
  </defs>
  <g id="Layer_1-2" data-name="Layer 1">
    <g>
      <g>
        <circle class="cls-1" cx="100" cy="100" r="100"/>
        <circle class="cls-2" cx="100" cy="100" r="95.61"/>
        <ellipse class="cls-3" cx="100" cy="96.5" rx="95.61" ry="92.1"/>
      </g>
      <path class="cls-1" d="M135.15,89.37l-29.98-29.98c-1.43-1.43-3.3-2.14-5.17-2.13-1.87,0-3.74.71-5.17,2.13l-29.98,29.98c-2.85,2.85-2.85,7.46,0,10.31,2.85,2.85,7.46,2.85,10.31,0l16.58-16.58v51.39c0,4.56,3.7,8.25,8.25,8.25s8.25-3.7,8.25-8.25v-51.39l16.58,16.58c2.85,2.85,7.46,2.85,10.31,0,2.85-2.85,2.85-7.46,0-10.31Z"/>
    </g>
  </g>
</svg>