<?xml version="1.0" encoding="UTF-8"?>
<svg id="Layer_2" data-name="Layer 2" xmlns="http://www.w3.org/2000/svg" viewBox="0 0 200 200">
  <defs>
    <style>
      .cls-1 {
        fill: #031428;
      }

      .cls-1, .cls-2, .cls-3 {
        stroke-width: 0px;
      }

      .cls-2 {
        fill: #a0998a;
      }

      .cls-3 {
        fill: #f9edcf;
      }
    </style>
  </defs>
  <g id="Layer_1-2" data-name="Layer 1">
    <circle class="cls-1" cx="100" cy="100" r="100"/>
    <circle class="cls-2" cx="100" cy="100" r="95.61"/>
    <ellipse class="cls-3" cx="100" cy="96.5" rx="95.61" ry="92.1"/>
    <path class="cls-1" d="M140.98,88.01c-2.88-.91-5.75-1.82-8.63-2.73-.21-.08-.58-.2-1.06-.29-.85-.15-1.5-.1-1.63-.09-1.01.07-9.16-.17-21.23-.58-.68-.02-1.22.1-1.57.2-.35.11-.76.23-1.17.57-.23.19-.38.38-.47.5-.43.59-1.44,2.23-2.73,4.46-.05.09-.12.23-.2.4-.22.51-.45,1.06-.23,1.51.01.02.21.41.58.47.5.08.97-.5,1.23-.83,1.31-1.64,2.82-3.74,3.16-4.22.16-.16.39-.33.69-.44,0,0,.35-.17.76-.09,9.23,1.89,18.46,3.79,27.69,5.68,1.05.22,1.85.08,2.4-.08.66-.18,1.18-.48,1.55-.75.24-.19.54-.46.82-.83.41-.53.61-1.06.72-1.42.03-.08.17-.42.03-.81-.18-.5-.67-.65-.73-.67Z"/>
    <path class="cls-1" d="M141.52,77.49c-.63-.07-1.25-.14-1.88-.21-1.21-.13-2.43-.25-3.64-.38-3.62-.39-7.25-.77-10.87-1.16-4.14-.44-8.29-.88-12.43-1.32-3.52-.37-7.04-.75-10.56-1.12-1.17-.12-2.34-.25-3.51-.37-1.59-.17-3.23-.23-4.81.05-1.49.26-2.46.99-3.59,1.94-5.45,4.57-11.16,8.83-17.14,12.67-2.61,1.68-5.05,3.13-7.19,4.34-2.06.98-3.79,1.47-5.05,1.73-.88.18-1.79.31-2.54,1.05-.77.76-.99,1.8-1.05,2.54v23.1c0,1.98,1.61,3.59,3.59,3.59h2.25c5.69.29,11.39.57,17.08.86,7.88.4,15.75.79,23.63,1.19.35.02.71.04,1.06.05,3.93.2,7.87.39,11.8.59,1.97.1,3.93.2,5.9.3,1.28.07,2.55.18,3.83.28,1.23.09,1.06-.8,1-1.71-.06-.91-.28-1.81-.7-2.63-1.13-2.18-2.85-2.75-5.08-3.24-1.21-.27-2.42-.54-3.63-.81-2.44-.55-4.88-1.11-7.32-1.68-5.16-1.2-10.24-2.44-15.24-3.69-.49-.12-1.44-.56-1.99-1.51-.77-1.34-.22-2.98.05-3.65,5.68-13.11,9.91-22.66,10.59-23.83.1-.17.33-.57.8-.87.51-.33,1.13-.37,2.35-.34,1.78.05,2.67.1,2.94.11,2.17.08,4.34.15,6.52.22,3.21.11,6.43.22,9.64.33,2.66.09,5.32.18,7.99.27,1.11.04,2.22.08,3.33.11.22,0,.44-.01.66-.02,1.12-.05,2.94.08,3.71-.9.65-.84.62-2.05.7-3.06.08-.95.09-2.67-1.19-2.81Z"/>
  </g>
</svg>